<mxfile host="app.diagrams.net" modified="2021-08-28T20:05:06.618Z" agent="5.0 (Macintosh; Intel Mac OS X 10_15_7) AppleWebKit/537.36 (KHTML, like Gecko) Chrome/90.0.4430.93 Safari/537.36 Edg/90.0.818.51" etag="AVlzRp2yElsUHQBDoQc-" version="14.9.9" type="github" pages="2">
  <diagram id="wFE0QG_FPsp0jaGvCLVb" name="vue架构图">
    <mxGraphModel dx="1186" dy="716" grid="1" gridSize="10" guides="1" tooltips="1" connect="1" arrows="1" fold="1" page="1" pageScale="1" pageWidth="850" pageHeight="1100" math="0" shadow="0">
      <root>
        <mxCell id="0" />
        <mxCell id="1" parent="0" />
        <mxCell id="2XtFPiY6KJdhCI9tfIKG-5" value="浏览器" style="text;html=1;align=center;verticalAlign=middle;resizable=0;points=[];autosize=1;strokeColor=none;sketch=1;" vertex="1" parent="1">
          <mxGeometry x="230" y="45" width="50" height="20" as="geometry" />
        </mxCell>
        <mxCell id="2XtFPiY6KJdhCI9tfIKG-6" value="HTML/CSS/JavaScript，单页面应用，各模块按需加载" style="whiteSpace=wrap;html=1;sketch=1;" vertex="1" parent="1">
          <mxGeometry x="300" y="40" width="460" height="30" as="geometry" />
        </mxCell>
        <mxCell id="2XtFPiY6KJdhCI9tfIKG-9" value="生成各页面JS模块" style="text;html=1;align=center;verticalAlign=middle;resizable=0;points=[];autosize=1;strokeColor=none;sketch=1;" vertex="1" parent="1">
          <mxGeometry x="170" y="105" width="110" height="20" as="geometry" />
        </mxCell>
        <mxCell id="2XtFPiY6KJdhCI9tfIKG-11" value="&lt;span style=&quot;color: rgba(0 , 0 , 0 , 0) ; font-family: monospace ; font-size: 0px&quot;&gt;%3CmxGraphModel%3E%3Croot%3E%3CmxCell%20id%3D%220%22%2F%3E%3CmxCell%20id%3D%221%22%20parent%3D%220%22%2F%3E%3CmxCell%20id%3D%222%22%20value%3D%22%E9%A6%96%E9%A1%B5%22%20style%3D%22rounded%3D1%3BwhiteSpace%3Dwrap%3Bhtml%3D1%3B%22%20vertex%3D%221%22%20parent%3D%221%22%3E%3CmxGeometry%20x%3D%22300%22%20y%3D%22100%22%20width%3D%2240%22%20height%3D%2225%22%20as%3D%22geometry%22%2F%3E%3C%2FmxCell%3E%3C%2Froot%3E%3C%2FmxGraphModel%3E&lt;/span&gt;" style="whiteSpace=wrap;html=1;sketch=1;" vertex="1" parent="1">
          <mxGeometry x="300" y="90" width="460" height="50" as="geometry" />
        </mxCell>
        <mxCell id="2XtFPiY6KJdhCI9tfIKG-12" value="首页" style="whiteSpace=wrap;html=1;sketch=1;" vertex="1" parent="1">
          <mxGeometry x="360" y="100" width="40" height="30" as="geometry" />
        </mxCell>
        <mxCell id="2XtFPiY6KJdhCI9tfIKG-13" value="登陆" style="whiteSpace=wrap;html=1;sketch=1;" vertex="1" parent="1">
          <mxGeometry x="420" y="100" width="40" height="30" as="geometry" />
        </mxCell>
        <mxCell id="2XtFPiY6KJdhCI9tfIKG-14" value="会话" style="whiteSpace=wrap;html=1;sketch=1;" vertex="1" parent="1">
          <mxGeometry x="480" y="100" width="40" height="30" as="geometry" />
        </mxCell>
        <mxCell id="2XtFPiY6KJdhCI9tfIKG-15" value="权限rbac控制模型" style="whiteSpace=wrap;html=1;sketch=1;" vertex="1" parent="1">
          <mxGeometry x="540" y="100" width="110" height="30" as="geometry" />
        </mxCell>
        <mxCell id="2XtFPiY6KJdhCI9tfIKG-16" value="..." style="whiteSpace=wrap;html=1;sketch=1;" vertex="1" parent="1">
          <mxGeometry x="670" y="100" width="40" height="30" as="geometry" />
        </mxCell>
        <mxCell id="2XtFPiY6KJdhCI9tfIKG-22" value="" style="endArrow=none;dashed=1;html=1;curved=1;sketch=1;" edge="1" parent="1">
          <mxGeometry width="50" height="50" relative="1" as="geometry">
            <mxPoint x="160" y="150" as="sourcePoint" />
            <mxPoint x="800" y="150" as="targetPoint" />
          </mxGeometry>
        </mxCell>
        <mxCell id="2XtFPiY6KJdhCI9tfIKG-23" value="" style="endArrow=none;dashed=1;html=1;curved=1;sketch=1;" edge="1" parent="1">
          <mxGeometry width="50" height="50" relative="1" as="geometry">
            <mxPoint x="160" y="80" as="sourcePoint" />
            <mxPoint x="800" y="80" as="targetPoint" />
          </mxGeometry>
        </mxCell>
        <mxCell id="2XtFPiY6KJdhCI9tfIKG-26" value="Webpack" style="text;html=1;align=center;verticalAlign=middle;resizable=0;points=[];autosize=1;strokeColor=none;sketch=1;" vertex="1" parent="1">
          <mxGeometry x="210" y="175" width="70" height="20" as="geometry" />
        </mxCell>
        <mxCell id="2XtFPiY6KJdhCI9tfIKG-27" value="app.js" style="whiteSpace=wrap;html=1;sketch=1;" vertex="1" parent="1">
          <mxGeometry x="300" y="170" width="80" height="30" as="geometry" />
        </mxCell>
        <mxCell id="2XtFPiY6KJdhCI9tfIKG-28" value="" style="whiteSpace=wrap;html=1;sketch=1;" vertex="1" parent="1">
          <mxGeometry x="420" y="160" width="340" height="50" as="geometry" />
        </mxCell>
        <mxCell id="2XtFPiY6KJdhCI9tfIKG-29" value="dev" style="whiteSpace=wrap;html=1;sketch=1;" vertex="1" parent="1">
          <mxGeometry x="470" y="166" width="90" height="15" as="geometry" />
        </mxCell>
        <mxCell id="2XtFPiY6KJdhCI9tfIKG-35" value="" style="endArrow=classic;html=1;exitX=1;exitY=0.5;exitDx=0;exitDy=0;curved=1;sketch=1;" edge="1" parent="1" source="2XtFPiY6KJdhCI9tfIKG-27">
          <mxGeometry width="50" height="50" relative="1" as="geometry">
            <mxPoint x="390" y="184.5" as="sourcePoint" />
            <mxPoint x="420" y="184.5" as="targetPoint" />
          </mxGeometry>
        </mxCell>
        <mxCell id="2XtFPiY6KJdhCI9tfIKG-37" value="&lt;span&gt;build&lt;/span&gt;" style="whiteSpace=wrap;html=1;sketch=1;" vertex="1" parent="1">
          <mxGeometry x="620" y="165" width="90" height="15" as="geometry" />
        </mxCell>
        <mxCell id="2XtFPiY6KJdhCI9tfIKG-39" value="webpack" style="whiteSpace=wrap;html=1;sketch=1;" vertex="1" parent="1">
          <mxGeometry x="440" y="188" width="300" height="15" as="geometry" />
        </mxCell>
        <mxCell id="2XtFPiY6KJdhCI9tfIKG-41" value="" style="endArrow=none;dashed=1;html=1;curved=1;sketch=1;" edge="1" parent="1">
          <mxGeometry width="50" height="50" relative="1" as="geometry">
            <mxPoint x="160" y="220" as="sourcePoint" />
            <mxPoint x="800" y="220" as="targetPoint" />
          </mxGeometry>
        </mxCell>
        <mxCell id="2XtFPiY6KJdhCI9tfIKG-42" value="" style="endArrow=classic;html=1;curved=1;sketch=1;" edge="1" parent="1">
          <mxGeometry width="50" height="50" relative="1" as="geometry">
            <mxPoint x="594.5" y="160" as="sourcePoint" />
            <mxPoint x="594.5" y="140" as="targetPoint" />
          </mxGeometry>
        </mxCell>
        <mxCell id="2XtFPiY6KJdhCI9tfIKG-46" value="" style="endArrow=classic;html=1;curved=1;sketch=1;" edge="1" parent="1">
          <mxGeometry width="50" height="50" relative="1" as="geometry">
            <mxPoint x="529.5" y="90" as="sourcePoint" />
            <mxPoint x="529.5" y="70" as="targetPoint" />
          </mxGeometry>
        </mxCell>
        <mxCell id="2XtFPiY6KJdhCI9tfIKG-48" value="页面容器" style="text;html=1;align=center;verticalAlign=middle;resizable=0;points=[];autosize=1;strokeColor=none;sketch=1;" vertex="1" parent="1">
          <mxGeometry x="210" y="310" width="60" height="20" as="geometry" />
        </mxCell>
        <mxCell id="2XtFPiY6KJdhCI9tfIKG-78" style="edgeStyle=orthogonalEdgeStyle;orthogonalLoop=1;jettySize=auto;html=1;entryX=0.5;entryY=1;entryDx=0;entryDy=0;curved=1;sketch=1;" edge="1" parent="1" source="2XtFPiY6KJdhCI9tfIKG-49" target="2XtFPiY6KJdhCI9tfIKG-27">
          <mxGeometry relative="1" as="geometry">
            <Array as="points">
              <mxPoint x="500" y="220" />
              <mxPoint x="340" y="220" />
            </Array>
          </mxGeometry>
        </mxCell>
        <mxCell id="2XtFPiY6KJdhCI9tfIKG-49" value="" style="whiteSpace=wrap;html=1;glass=0;shadow=0;sketch=1;" vertex="1" parent="1">
          <mxGeometry x="300" y="230" width="400" height="210" as="geometry" />
        </mxCell>
        <mxCell id="2XtFPiY6KJdhCI9tfIKG-50" value="UI&lt;br&gt;组&lt;br&gt;件&lt;br&gt;库" style="whiteSpace=wrap;html=1;shadow=0;glass=0;sketch=1;" vertex="1" parent="1">
          <mxGeometry x="730" y="230" width="30" height="210" as="geometry" />
        </mxCell>
        <mxCell id="2XtFPiY6KJdhCI9tfIKG-51" value="&lt;div&gt;&lt;span&gt;Vue Component&lt;/span&gt;&lt;/div&gt;" style="whiteSpace=wrap;html=1;shadow=0;glass=0;align=center;horizontal=1;verticalAlign=top;sketch=1;" vertex="1" parent="1">
          <mxGeometry x="310" y="240" width="120" height="190" as="geometry" />
        </mxCell>
        <mxCell id="2XtFPiY6KJdhCI9tfIKG-52" value="公共组件" style="whiteSpace=wrap;html=1;shadow=0;glass=0;sketch=1;" vertex="1" parent="1">
          <mxGeometry x="330" y="270" width="80" height="20" as="geometry" />
        </mxCell>
        <mxCell id="2XtFPiY6KJdhCI9tfIKG-54" value="页面组件" style="whiteSpace=wrap;html=1;shadow=0;glass=0;sketch=1;" vertex="1" parent="1">
          <mxGeometry x="330" y="300" width="80" height="20" as="geometry" />
        </mxCell>
        <mxCell id="2XtFPiY6KJdhCI9tfIKG-55" value="..." style="whiteSpace=wrap;html=1;shadow=0;glass=0;sketch=1;" vertex="1" parent="1">
          <mxGeometry x="330" y="330" width="80" height="20" as="geometry" />
        </mxCell>
        <mxCell id="2XtFPiY6KJdhCI9tfIKG-56" value="页面组件" style="whiteSpace=wrap;html=1;shadow=0;glass=0;sketch=1;" vertex="1" parent="1">
          <mxGeometry x="330" y="360" width="80" height="20" as="geometry" />
        </mxCell>
        <mxCell id="2XtFPiY6KJdhCI9tfIKG-58" value="&lt;div&gt;&lt;span&gt;Vue Router&lt;/span&gt;&lt;/div&gt;" style="whiteSpace=wrap;html=1;shadow=0;glass=0;align=center;horizontal=1;verticalAlign=top;sketch=1;" vertex="1" parent="1">
          <mxGeometry x="440" y="240" width="120" height="190" as="geometry" />
        </mxCell>
        <mxCell id="2XtFPiY6KJdhCI9tfIKG-59" value="Login" style="whiteSpace=wrap;html=1;shadow=0;glass=0;sketch=1;" vertex="1" parent="1">
          <mxGeometry x="460" y="270" width="80" height="20" as="geometry" />
        </mxCell>
        <mxCell id="2XtFPiY6KJdhCI9tfIKG-60" value="Home" style="whiteSpace=wrap;html=1;shadow=0;glass=0;sketch=1;" vertex="1" parent="1">
          <mxGeometry x="460" y="300" width="80" height="20" as="geometry" />
        </mxCell>
        <mxCell id="2XtFPiY6KJdhCI9tfIKG-61" value="路由地址" style="whiteSpace=wrap;html=1;shadow=0;glass=0;sketch=1;" vertex="1" parent="1">
          <mxGeometry x="460" y="390" width="80" height="20" as="geometry" />
        </mxCell>
        <mxCell id="2XtFPiY6KJdhCI9tfIKG-62" value="..." style="whiteSpace=wrap;html=1;shadow=0;glass=0;sketch=1;" vertex="1" parent="1">
          <mxGeometry x="460" y="330" width="80" height="20" as="geometry" />
        </mxCell>
        <mxCell id="2XtFPiY6KJdhCI9tfIKG-63" value="路由配置" style="whiteSpace=wrap;html=1;shadow=0;glass=0;sketch=1;" vertex="1" parent="1">
          <mxGeometry x="460" y="360" width="80" height="20" as="geometry" />
        </mxCell>
        <mxCell id="2XtFPiY6KJdhCI9tfIKG-66" value="&lt;div&gt;&lt;span&gt;VueX&lt;/span&gt;&lt;/div&gt;&lt;div&gt;状态管理&lt;/div&gt;" style="whiteSpace=wrap;html=1;shadow=0;glass=0;align=center;horizontal=1;verticalAlign=top;sketch=1;" vertex="1" parent="1">
          <mxGeometry x="570" y="240" width="120" height="190" as="geometry" />
        </mxCell>
        <mxCell id="2XtFPiY6KJdhCI9tfIKG-67" value="state" style="whiteSpace=wrap;html=1;shadow=0;glass=0;sketch=1;" vertex="1" parent="1">
          <mxGeometry x="590" y="280" width="80" height="20" as="geometry" />
        </mxCell>
        <mxCell id="2XtFPiY6KJdhCI9tfIKG-68" value="&lt;div&gt;getters&lt;br&gt;&lt;/div&gt;" style="whiteSpace=wrap;html=1;shadow=0;glass=0;sketch=1;" vertex="1" parent="1">
          <mxGeometry x="590" y="310" width="80" height="20" as="geometry" />
        </mxCell>
        <mxCell id="2XtFPiY6KJdhCI9tfIKG-69" value="&lt;div&gt;mutations&lt;br&gt;&lt;/div&gt;" style="whiteSpace=wrap;html=1;shadow=0;glass=0;sketch=1;" vertex="1" parent="1">
          <mxGeometry x="590" y="340" width="80" height="20" as="geometry" />
        </mxCell>
        <mxCell id="2XtFPiY6KJdhCI9tfIKG-70" value="&lt;div&gt;actions&lt;br&gt;&lt;/div&gt;" style="whiteSpace=wrap;html=1;shadow=0;glass=0;sketch=1;" vertex="1" parent="1">
          <mxGeometry x="590" y="370" width="80" height="20" as="geometry" />
        </mxCell>
        <mxCell id="2XtFPiY6KJdhCI9tfIKG-71" value="&lt;div&gt;modules&lt;br&gt;&lt;/div&gt;" style="whiteSpace=wrap;html=1;shadow=0;glass=0;sketch=1;" vertex="1" parent="1">
          <mxGeometry x="590" y="400" width="80" height="20" as="geometry" />
        </mxCell>
        <mxCell id="2XtFPiY6KJdhCI9tfIKG-74" value="" style="endArrow=none;dashed=1;html=1;curved=1;sketch=1;" edge="1" parent="1">
          <mxGeometry width="50" height="50" relative="1" as="geometry">
            <mxPoint x="160" y="450" as="sourcePoint" />
            <mxPoint x="800" y="450" as="targetPoint" />
          </mxGeometry>
        </mxCell>
        <mxCell id="2XtFPiY6KJdhCI9tfIKG-75" value="" style="endArrow=classic;html=1;curved=1;sketch=1;" edge="1" parent="1">
          <mxGeometry width="50" height="50" relative="1" as="geometry">
            <mxPoint x="730" y="334.5" as="sourcePoint" />
            <mxPoint x="700" y="334.5" as="targetPoint" />
          </mxGeometry>
        </mxCell>
        <mxCell id="2XtFPiY6KJdhCI9tfIKG-79" value="Utils" style="text;html=1;align=center;verticalAlign=middle;resizable=0;points=[];autosize=1;strokeColor=none;sketch=1;" vertex="1" parent="1">
          <mxGeometry x="240" y="470" width="40" height="20" as="geometry" />
        </mxCell>
        <mxCell id="2XtFPiY6KJdhCI9tfIKG-80" value="" style="whiteSpace=wrap;html=1;shadow=0;glass=0;align=center;verticalAlign=top;sketch=1;" vertex="1" parent="1">
          <mxGeometry x="300" y="460" width="460" height="40" as="geometry" />
        </mxCell>
        <mxCell id="2XtFPiY6KJdhCI9tfIKG-82" value="第三方库" style="whiteSpace=wrap;html=1;sketch=1;" vertex="1" parent="1">
          <mxGeometry x="330" y="465" width="70" height="30" as="geometry" />
        </mxCell>
        <mxCell id="2XtFPiY6KJdhCI9tfIKG-83" value="工具类" style="whiteSpace=wrap;html=1;sketch=1;" vertex="1" parent="1">
          <mxGeometry x="410" y="465" width="60" height="30" as="geometry" />
        </mxCell>
        <mxCell id="2XtFPiY6KJdhCI9tfIKG-84" value="公共组件" style="whiteSpace=wrap;html=1;sketch=1;" vertex="1" parent="1">
          <mxGeometry x="480" y="465" width="80" height="30" as="geometry" />
        </mxCell>
        <mxCell id="2XtFPiY6KJdhCI9tfIKG-85" value="配置信息" style="whiteSpace=wrap;html=1;sketch=1;" vertex="1" parent="1">
          <mxGeometry x="570" y="465" width="90" height="30" as="geometry" />
        </mxCell>
        <mxCell id="2XtFPiY6KJdhCI9tfIKG-86" value="plugin" style="whiteSpace=wrap;html=1;sketch=1;" vertex="1" parent="1">
          <mxGeometry x="670" y="465" width="60" height="30" as="geometry" />
        </mxCell>
        <mxCell id="2XtFPiY6KJdhCI9tfIKG-87" value="" style="endArrow=none;dashed=1;html=1;curved=1;sketch=1;" edge="1" parent="1">
          <mxGeometry width="50" height="50" relative="1" as="geometry">
            <mxPoint x="160" y="510" as="sourcePoint" />
            <mxPoint x="800" y="510" as="targetPoint" />
          </mxGeometry>
        </mxCell>
        <mxCell id="2XtFPiY6KJdhCI9tfIKG-88" value="" style="endArrow=classic;html=1;curved=1;sketch=1;" edge="1" parent="1">
          <mxGeometry width="50" height="50" relative="1" as="geometry">
            <mxPoint x="529.5" y="460" as="sourcePoint" />
            <mxPoint x="529.5" y="440" as="targetPoint" />
          </mxGeometry>
        </mxCell>
        <mxCell id="2XtFPiY6KJdhCI9tfIKG-89" value="Service" style="text;html=1;align=center;verticalAlign=middle;resizable=0;points=[];autosize=1;strokeColor=none;sketch=1;" vertex="1" parent="1">
          <mxGeometry x="220" y="590" width="60" height="20" as="geometry" />
        </mxCell>
        <UserObject label="" id="2XtFPiY6KJdhCI9tfIKG-90">
          <mxCell style="whiteSpace=wrap;html=1;shadow=0;glass=0;align=center;verticalAlign=top;sketch=1;" vertex="1" parent="1">
            <mxGeometry x="300" y="580" width="460" height="40" as="geometry" />
          </mxCell>
        </UserObject>
        <mxCell id="2XtFPiY6KJdhCI9tfIKG-91" value="Interceptors" style="whiteSpace=wrap;html=1;sketch=1;" vertex="1" parent="1">
          <mxGeometry x="330" y="585" width="120" height="30" as="geometry" />
        </mxCell>
        <mxCell id="2XtFPiY6KJdhCI9tfIKG-92" value="Data Filter" style="whiteSpace=wrap;html=1;sketch=1;" vertex="1" parent="1">
          <mxGeometry x="470" y="585" width="130" height="30" as="geometry" />
        </mxCell>
        <mxCell id="2XtFPiY6KJdhCI9tfIKG-93" value="中间件" style="whiteSpace=wrap;html=1;sketch=1;" vertex="1" parent="1">
          <mxGeometry x="620" y="585" width="110" height="30" as="geometry" />
        </mxCell>
        <mxCell id="2XtFPiY6KJdhCI9tfIKG-95" value="" style="endArrow=classic;html=1;curved=1;sketch=1;" edge="1" parent="1">
          <mxGeometry width="50" height="50" relative="1" as="geometry">
            <mxPoint x="529.5" y="520" as="sourcePoint" />
            <mxPoint x="529.5" y="500" as="targetPoint" />
          </mxGeometry>
        </mxCell>
        <mxCell id="2XtFPiY6KJdhCI9tfIKG-96" value="Network" style="text;html=1;align=center;verticalAlign=middle;resizable=0;points=[];autosize=1;strokeColor=none;sketch=1;" vertex="1" parent="1">
          <mxGeometry x="220" y="650" width="60" height="20" as="geometry" />
        </mxCell>
        <mxCell id="2XtFPiY6KJdhCI9tfIKG-111" style="edgeStyle=orthogonalEdgeStyle;orthogonalLoop=1;jettySize=auto;html=1;exitX=0.5;exitY=1;exitDx=0;exitDy=0;entryX=0.5;entryY=0;entryDx=0;entryDy=0;curved=1;sketch=1;" edge="1" parent="1" source="2XtFPiY6KJdhCI9tfIKG-97" target="2XtFPiY6KJdhCI9tfIKG-107">
          <mxGeometry relative="1" as="geometry" />
        </mxCell>
        <mxCell id="2XtFPiY6KJdhCI9tfIKG-97" value="" style="whiteSpace=wrap;html=1;shadow=0;glass=0;align=center;verticalAlign=top;sketch=1;" vertex="1" parent="1">
          <mxGeometry x="300" y="640" width="460" height="40" as="geometry" />
        </mxCell>
        <mxCell id="7zcBk7F_4h8mx38gcnLj-5" style="edgeStyle=orthogonalEdgeStyle;orthogonalLoop=1;jettySize=auto;html=1;exitX=0.5;exitY=1;exitDx=0;exitDy=0;entryX=0.5;entryY=0;entryDx=0;entryDy=0;curved=1;sketch=1;" edge="1" parent="1" source="2XtFPiY6KJdhCI9tfIKG-98" target="2XtFPiY6KJdhCI9tfIKG-107">
          <mxGeometry relative="1" as="geometry" />
        </mxCell>
        <mxCell id="2XtFPiY6KJdhCI9tfIKG-98" value="POST请求" style="whiteSpace=wrap;html=1;sketch=1;" vertex="1" parent="1">
          <mxGeometry x="330" y="645" width="120" height="30" as="geometry" />
        </mxCell>
        <mxCell id="2XtFPiY6KJdhCI9tfIKG-99" value="GET请求" style="whiteSpace=wrap;html=1;sketch=1;" vertex="1" parent="1">
          <mxGeometry x="470" y="645" width="130" height="30" as="geometry" />
        </mxCell>
        <mxCell id="7zcBk7F_4h8mx38gcnLj-6" style="edgeStyle=orthogonalEdgeStyle;orthogonalLoop=1;jettySize=auto;html=1;exitX=0.5;exitY=1;exitDx=0;exitDy=0;entryX=0.5;entryY=0;entryDx=0;entryDy=0;curved=1;sketch=1;" edge="1" parent="1" source="2XtFPiY6KJdhCI9tfIKG-100" target="2XtFPiY6KJdhCI9tfIKG-107">
          <mxGeometry relative="1" as="geometry" />
        </mxCell>
        <mxCell id="2XtFPiY6KJdhCI9tfIKG-100" value="PUT请求" style="whiteSpace=wrap;html=1;sketch=1;" vertex="1" parent="1">
          <mxGeometry x="620" y="645" width="110" height="30" as="geometry" />
        </mxCell>
        <mxCell id="2XtFPiY6KJdhCI9tfIKG-101" value="" style="endArrow=none;dashed=1;html=1;startArrow=none;curved=1;sketch=1;" edge="1" parent="1" source="2XtFPiY6KJdhCI9tfIKG-103">
          <mxGeometry width="50" height="50" relative="1" as="geometry">
            <mxPoint x="160" y="630" as="sourcePoint" />
            <mxPoint x="800" y="630" as="targetPoint" />
          </mxGeometry>
        </mxCell>
        <mxCell id="2XtFPiY6KJdhCI9tfIKG-102" value="" style="endArrow=classic;html=1;curved=1;sketch=1;" edge="1" parent="1">
          <mxGeometry width="50" height="50" relative="1" as="geometry">
            <mxPoint x="529.5" y="580" as="sourcePoint" />
            <mxPoint x="529.5" y="560" as="targetPoint" />
          </mxGeometry>
        </mxCell>
        <mxCell id="2XtFPiY6KJdhCI9tfIKG-106" value="Api" style="text;html=1;align=center;verticalAlign=middle;resizable=0;points=[];autosize=1;strokeColor=none;sketch=1;" vertex="1" parent="1">
          <mxGeometry x="250" y="710" width="30" height="20" as="geometry" />
        </mxCell>
        <mxCell id="2XtFPiY6KJdhCI9tfIKG-107" value="" style="whiteSpace=wrap;html=1;shadow=0;glass=0;align=center;verticalAlign=top;sketch=1;" vertex="1" parent="1">
          <mxGeometry x="300" y="700" width="460" height="40" as="geometry" />
        </mxCell>
        <mxCell id="2XtFPiY6KJdhCI9tfIKG-108" value="后台接口" style="whiteSpace=wrap;html=1;sketch=1;" vertex="1" parent="1">
          <mxGeometry x="540" y="705" width="190" height="30" as="geometry" />
        </mxCell>
        <mxCell id="2XtFPiY6KJdhCI9tfIKG-113" value="" style="strokeWidth=2;html=1;shape=mxgraph.flowchart.annotation_2;align=left;labelPosition=right;pointerEvents=1;shadow=0;glass=0;sketch=1;" vertex="1" parent="1">
          <mxGeometry x="110" y="40" width="50" height="700" as="geometry" />
        </mxCell>
        <mxCell id="2XtFPiY6KJdhCI9tfIKG-116" value="前端自定义Json接口" style="whiteSpace=wrap;html=1;sketch=1;" vertex="1" parent="1">
          <mxGeometry x="330" y="705" width="190" height="30" as="geometry" />
        </mxCell>
        <mxCell id="7zcBk7F_4h8mx38gcnLj-1" value="" style="endArrow=none;dashed=1;html=1;curved=1;sketch=1;" edge="1" parent="1">
          <mxGeometry width="50" height="50" relative="1" as="geometry">
            <mxPoint x="160" y="690" as="sourcePoint" />
            <mxPoint x="800" y="690" as="targetPoint" />
          </mxGeometry>
        </mxCell>
        <mxCell id="7zcBk7F_4h8mx38gcnLj-2" value="" style="endArrow=classic;html=1;curved=1;sketch=1;" edge="1" parent="1">
          <mxGeometry width="50" height="50" relative="1" as="geometry">
            <mxPoint x="530" y="640" as="sourcePoint" />
            <mxPoint x="530" y="620" as="targetPoint" />
          </mxGeometry>
        </mxCell>
        <mxCell id="2XtFPiY6KJdhCI9tfIKG-103" value="Axios" style="text;html=1;strokeColor=none;fillColor=none;align=center;verticalAlign=middle;whiteSpace=wrap;shadow=0;glass=0;sketch=1;" vertex="1" parent="1">
          <mxGeometry x="530" y="620" width="40" height="20" as="geometry" />
        </mxCell>
        <mxCell id="7zcBk7F_4h8mx38gcnLj-3" value="" style="endArrow=none;dashed=1;html=1;curved=1;sketch=1;" edge="1" parent="1" target="2XtFPiY6KJdhCI9tfIKG-103">
          <mxGeometry width="50" height="50" relative="1" as="geometry">
            <mxPoint x="160" y="630" as="sourcePoint" />
            <mxPoint x="800" y="630" as="targetPoint" />
          </mxGeometry>
        </mxCell>
        <mxCell id="7zcBk7F_4h8mx38gcnLj-4" value="" style="endArrow=none;dashed=1;html=1;curved=1;sketch=1;" edge="1" parent="1">
          <mxGeometry width="50" height="50" relative="1" as="geometry">
            <mxPoint x="160" y="570" as="sourcePoint" />
            <mxPoint x="800" y="570" as="targetPoint" />
          </mxGeometry>
        </mxCell>
        <mxCell id="7zcBk7F_4h8mx38gcnLj-7" value="数据缓存区" style="text;html=1;align=center;verticalAlign=middle;resizable=0;points=[];autosize=1;strokeColor=none;sketch=1;" vertex="1" parent="1">
          <mxGeometry x="220" y="530" width="80" height="20" as="geometry" />
        </mxCell>
        <mxCell id="7zcBk7F_4h8mx38gcnLj-8" value="" style="whiteSpace=wrap;html=1;shadow=0;glass=0;align=center;verticalAlign=top;sketch=1;" vertex="1" parent="1">
          <mxGeometry x="300" y="520" width="460" height="40" as="geometry" />
        </mxCell>
        <mxCell id="7zcBk7F_4h8mx38gcnLj-9" value="localStorage" style="whiteSpace=wrap;html=1;sketch=1;" vertex="1" parent="1">
          <mxGeometry x="330" y="525" width="80" height="30" as="geometry" />
        </mxCell>
        <mxCell id="7zcBk7F_4h8mx38gcnLj-10" value="sessionStorage" style="whiteSpace=wrap;html=1;sketch=1;" vertex="1" parent="1">
          <mxGeometry x="425" y="525" width="110" height="30" as="geometry" />
        </mxCell>
        <mxCell id="7zcBk7F_4h8mx38gcnLj-11" value="cookie" style="whiteSpace=wrap;html=1;sketch=1;" vertex="1" parent="1">
          <mxGeometry x="547.5" y="525" width="95" height="30" as="geometry" />
        </mxCell>
        <mxCell id="7zcBk7F_4h8mx38gcnLj-12" value="oss" style="whiteSpace=wrap;html=1;sketch=1;" vertex="1" parent="1">
          <mxGeometry x="655" y="525" width="75" height="30" as="geometry" />
        </mxCell>
        <mxCell id="7zcBk7F_4h8mx38gcnLj-13" value="前&lt;br style=&quot;font-size: 25px;&quot;&gt;端&lt;br style=&quot;font-size: 25px;&quot;&gt;技&lt;br style=&quot;font-size: 25px;&quot;&gt;术&lt;br style=&quot;font-size: 25px;&quot;&gt;架&lt;br style=&quot;font-size: 25px;&quot;&gt;构" style="whiteSpace=wrap;html=1;strokeWidth=2;fillWeight=4;hachureGap=8;hachureAngle=45;fontSize=25;sketch=1;" vertex="1" parent="1">
          <mxGeometry x="40" y="295" width="70" height="190" as="geometry" />
        </mxCell>
      </root>
    </mxGraphModel>
  </diagram>
  <diagram id="Mlr_E3Os8SHC5t3C3edM" name="业务架构图">
    <mxGraphModel dx="1186" dy="716" grid="1" gridSize="10" guides="1" tooltips="1" connect="1" arrows="1" fold="1" page="1" pageScale="1" pageWidth="2339" pageHeight="3300" math="0" shadow="0">
      <root>
        <mxCell id="uXWyWLTl78OVhnb3MbMW-0" />
        <mxCell id="uXWyWLTl78OVhnb3MbMW-1" parent="uXWyWLTl78OVhnb3MbMW-0" />
        <mxCell id="OshH1vZKc_uV_U5dnte--0" value="对外系统" style="text;html=1;align=center;verticalAlign=middle;resizable=0;points=[];autosize=1;strokeColor=none;sketch=1;" vertex="1" parent="uXWyWLTl78OVhnb3MbMW-1">
          <mxGeometry x="290" y="50" width="60" height="20" as="geometry" />
        </mxCell>
        <mxCell id="OshH1vZKc_uV_U5dnte--1" value="" style="rounded=0;whiteSpace=wrap;html=1;dashed=1;sketch=1;" vertex="1" parent="uXWyWLTl78OVhnb3MbMW-1">
          <mxGeometry x="360" y="30" width="730" height="60" as="geometry" />
        </mxCell>
        <mxCell id="OshH1vZKc_uV_U5dnte--3" value="TRTJK会员中心小程序" style="rounded=0;whiteSpace=wrap;html=1;sketch=1;" vertex="1" parent="uXWyWLTl78OVhnb3MbMW-1">
          <mxGeometry x="390" y="45" width="140" height="30" as="geometry" />
        </mxCell>
        <mxCell id="OshH1vZKc_uV_U5dnte--4" value="TRTJK门店助手小程序" style="rounded=0;whiteSpace=wrap;html=1;sketch=1;" vertex="1" parent="uXWyWLTl78OVhnb3MbMW-1">
          <mxGeometry x="540" y="45" width="150" height="30" as="geometry" />
        </mxCell>
        <mxCell id="OshH1vZKc_uV_U5dnte--6" value="TRTJK会员公众号" style="rounded=0;whiteSpace=wrap;html=1;sketch=1;" vertex="1" parent="uXWyWLTl78OVhnb3MbMW-1">
          <mxGeometry x="700" y="45" width="120" height="30" as="geometry" />
        </mxCell>
        <mxCell id="OshH1vZKc_uV_U5dnte--7" value="TRTJK会员服务号" style="rounded=0;whiteSpace=wrap;html=1;sketch=1;" vertex="1" parent="uXWyWLTl78OVhnb3MbMW-1">
          <mxGeometry x="830" y="45" width="110" height="30" as="geometry" />
        </mxCell>
        <mxCell id="OshH1vZKc_uV_U5dnte--8" value="管理中后台" style="text;html=1;align=center;verticalAlign=middle;resizable=0;points=[];autosize=1;strokeColor=none;sketch=1;" vertex="1" parent="uXWyWLTl78OVhnb3MbMW-1">
          <mxGeometry x="270" y="175" width="80" height="20" as="geometry" />
        </mxCell>
        <mxCell id="OshH1vZKc_uV_U5dnte--9" value="" style="rounded=0;whiteSpace=wrap;html=1;dashed=1;sketch=1;" vertex="1" parent="uXWyWLTl78OVhnb3MbMW-1">
          <mxGeometry x="360" y="110" width="730" height="150" as="geometry" />
        </mxCell>
        <mxCell id="OshH1vZKc_uV_U5dnte--10" value="CRM后管系统" style="rounded=0;whiteSpace=wrap;html=1;sketch=1;" vertex="1" parent="uXWyWLTl78OVhnb3MbMW-1">
          <mxGeometry x="390" y="125" width="140" height="30" as="geometry" />
        </mxCell>
        <mxCell id="OshH1vZKc_uV_U5dnte--11" value="商品中心" style="rounded=0;whiteSpace=wrap;html=1;sketch=1;" vertex="1" parent="uXWyWLTl78OVhnb3MbMW-1">
          <mxGeometry x="570" y="125" width="140" height="30" as="geometry" />
        </mxCell>
        <mxCell id="OshH1vZKc_uV_U5dnte--12" value="营销中心" style="rounded=0;whiteSpace=wrap;html=1;sketch=1;" vertex="1" parent="uXWyWLTl78OVhnb3MbMW-1">
          <mxGeometry x="750" y="125" width="140" height="30" as="geometry" />
        </mxCell>
        <mxCell id="OshH1vZKc_uV_U5dnte--13" value="订单中心" style="rounded=0;whiteSpace=wrap;html=1;sketch=1;" vertex="1" parent="uXWyWLTl78OVhnb3MbMW-1">
          <mxGeometry x="920" y="125" width="140" height="30" as="geometry" />
        </mxCell>
        <mxCell id="OshH1vZKc_uV_U5dnte--14" value="会员中心" style="rounded=0;whiteSpace=wrap;html=1;sketch=1;" vertex="1" parent="uXWyWLTl78OVhnb3MbMW-1">
          <mxGeometry x="390" y="170" width="140" height="30" as="geometry" />
        </mxCell>
        <mxCell id="OshH1vZKc_uV_U5dnte--15" value="长益会员" style="rounded=0;whiteSpace=wrap;html=1;sketch=1;" vertex="1" parent="uXWyWLTl78OVhnb3MbMW-1">
          <mxGeometry x="570" y="170" width="140" height="30" as="geometry" />
        </mxCell>
        <mxCell id="OshH1vZKc_uV_U5dnte--16" value="活动中心" style="rounded=0;whiteSpace=wrap;html=1;sketch=1;" vertex="1" parent="uXWyWLTl78OVhnb3MbMW-1">
          <mxGeometry x="750" y="170" width="140" height="30" as="geometry" />
        </mxCell>
        <mxCell id="OshH1vZKc_uV_U5dnte--17" value="CMS" style="rounded=0;whiteSpace=wrap;html=1;sketch=1;" vertex="1" parent="uXWyWLTl78OVhnb3MbMW-1">
          <mxGeometry x="920" y="170" width="140" height="30" as="geometry" />
        </mxCell>
        <mxCell id="OshH1vZKc_uV_U5dnte--18" value="优惠券系统" style="rounded=0;whiteSpace=wrap;html=1;sketch=1;" vertex="1" parent="uXWyWLTl78OVhnb3MbMW-1">
          <mxGeometry x="390" y="210" width="140" height="30" as="geometry" />
        </mxCell>
        <mxCell id="OshH1vZKc_uV_U5dnte--19" value="数据权限管理" style="rounded=0;whiteSpace=wrap;html=1;sketch=1;" vertex="1" parent="uXWyWLTl78OVhnb3MbMW-1">
          <mxGeometry x="570" y="210" width="140" height="30" as="geometry" />
        </mxCell>
        <mxCell id="OshH1vZKc_uV_U5dnte--20" value="系统权限管理" style="rounded=0;whiteSpace=wrap;html=1;sketch=1;" vertex="1" parent="uXWyWLTl78OVhnb3MbMW-1">
          <mxGeometry x="750" y="210" width="140" height="30" as="geometry" />
        </mxCell>
        <mxCell id="OshH1vZKc_uV_U5dnte--21" value="一店一码H5" style="rounded=0;whiteSpace=wrap;html=1;sketch=1;" vertex="1" parent="uXWyWLTl78OVhnb3MbMW-1">
          <mxGeometry x="950" y="45" width="110" height="30" as="geometry" />
        </mxCell>
        <mxCell id="OshH1vZKc_uV_U5dnte--22" value="分析报表" style="rounded=0;whiteSpace=wrap;html=1;sketch=1;" vertex="1" parent="uXWyWLTl78OVhnb3MbMW-1">
          <mxGeometry x="920" y="210" width="140" height="30" as="geometry" />
        </mxCell>
        <mxCell id="OshH1vZKc_uV_U5dnte--23" value="业务单元支持逻辑" style="text;html=1;align=center;verticalAlign=middle;resizable=0;points=[];autosize=1;strokeColor=none;sketch=1;" vertex="1" parent="uXWyWLTl78OVhnb3MbMW-1">
          <mxGeometry x="240" y="345" width="110" height="20" as="geometry" />
        </mxCell>
        <mxCell id="OshH1vZKc_uV_U5dnte--24" value="" style="rounded=0;whiteSpace=wrap;html=1;dashed=1;sketch=1;" vertex="1" parent="uXWyWLTl78OVhnb3MbMW-1">
          <mxGeometry x="360" y="280" width="730" height="150" as="geometry" />
        </mxCell>
        <mxCell id="OshH1vZKc_uV_U5dnte--25" value="广告位配置" style="rounded=0;whiteSpace=wrap;html=1;sketch=1;" vertex="1" parent="uXWyWLTl78OVhnb3MbMW-1">
          <mxGeometry x="390" y="300" width="140" height="30" as="geometry" />
        </mxCell>
        <mxCell id="OshH1vZKc_uV_U5dnte--26" value="优惠券管理" style="rounded=0;whiteSpace=wrap;html=1;sketch=1;" vertex="1" parent="uXWyWLTl78OVhnb3MbMW-1">
          <mxGeometry x="570" y="300" width="140" height="30" as="geometry" />
        </mxCell>
        <mxCell id="OshH1vZKc_uV_U5dnte--27" value="送券管理" style="rounded=0;whiteSpace=wrap;html=1;sketch=1;" vertex="1" parent="uXWyWLTl78OVhnb3MbMW-1">
          <mxGeometry x="750" y="300" width="140" height="30" as="geometry" />
        </mxCell>
        <mxCell id="OshH1vZKc_uV_U5dnte--28" value="推广管理" style="rounded=0;whiteSpace=wrap;html=1;sketch=1;" vertex="1" parent="uXWyWLTl78OVhnb3MbMW-1">
          <mxGeometry x="920" y="300" width="140" height="30" as="geometry" />
        </mxCell>
        <mxCell id="OshH1vZKc_uV_U5dnte--29" value="快递信息" style="rounded=0;whiteSpace=wrap;html=1;sketch=1;" vertex="1" parent="uXWyWLTl78OVhnb3MbMW-1">
          <mxGeometry x="920" y="340" width="140" height="30" as="geometry" />
        </mxCell>
        <mxCell id="OshH1vZKc_uV_U5dnte--30" value="渠道管理" style="rounded=0;whiteSpace=wrap;html=1;sketch=1;" vertex="1" parent="uXWyWLTl78OVhnb3MbMW-1">
          <mxGeometry x="390" y="340" width="140" height="30" as="geometry" />
        </mxCell>
        <mxCell id="OshH1vZKc_uV_U5dnte--31" value="抽奖活动" style="rounded=0;whiteSpace=wrap;html=1;sketch=1;" vertex="1" parent="uXWyWLTl78OVhnb3MbMW-1">
          <mxGeometry x="390" y="380" width="140" height="30" as="geometry" />
        </mxCell>
        <mxCell id="OshH1vZKc_uV_U5dnte--32" value="中奖管理" style="rounded=0;whiteSpace=wrap;html=1;sketch=1;" vertex="1" parent="uXWyWLTl78OVhnb3MbMW-1">
          <mxGeometry x="570" y="340" width="140" height="30" as="geometry" />
        </mxCell>
        <mxCell id="OshH1vZKc_uV_U5dnte--33" value="收获地址管理" style="rounded=0;whiteSpace=wrap;html=1;sketch=1;" vertex="1" parent="uXWyWLTl78OVhnb3MbMW-1">
          <mxGeometry x="750" y="340" width="140" height="30" as="geometry" />
        </mxCell>
        <mxCell id="OshH1vZKc_uV_U5dnte--34" value="地图集瑞兽活动" style="rounded=0;whiteSpace=wrap;html=1;sketch=1;" vertex="1" parent="uXWyWLTl78OVhnb3MbMW-1">
          <mxGeometry x="570" y="380" width="140" height="30" as="geometry" />
        </mxCell>
        <mxCell id="OshH1vZKc_uV_U5dnte--35" value="抽盲盒活动" style="rounded=0;whiteSpace=wrap;html=1;sketch=1;" vertex="1" parent="uXWyWLTl78OVhnb3MbMW-1">
          <mxGeometry x="750" y="380" width="140" height="30" as="geometry" />
        </mxCell>
        <mxCell id="OshH1vZKc_uV_U5dnte--36" value="活动分享" style="rounded=0;whiteSpace=wrap;html=1;sketch=1;" vertex="1" parent="uXWyWLTl78OVhnb3MbMW-1">
          <mxGeometry x="920" y="380" width="140" height="30" as="geometry" />
        </mxCell>
        <mxCell id="OshH1vZKc_uV_U5dnte--37" value="基础架构信息管理" style="text;html=1;align=center;verticalAlign=middle;resizable=0;points=[];autosize=1;strokeColor=none;sketch=1;" vertex="1" parent="uXWyWLTl78OVhnb3MbMW-1">
          <mxGeometry x="240" y="490" width="110" height="20" as="geometry" />
        </mxCell>
        <mxCell id="OshH1vZKc_uV_U5dnte--38" value="" style="rounded=0;whiteSpace=wrap;html=1;dashed=1;sketch=1;" vertex="1" parent="uXWyWLTl78OVhnb3MbMW-1">
          <mxGeometry x="360" y="450" width="730" height="110" as="geometry" />
        </mxCell>
        <mxCell id="OshH1vZKc_uV_U5dnte--39" value="数据组织管理" style="rounded=0;whiteSpace=wrap;html=1;sketch=1;" vertex="1" parent="uXWyWLTl78OVhnb3MbMW-1">
          <mxGeometry x="390" y="470" width="140" height="30" as="geometry" />
        </mxCell>
        <mxCell id="OshH1vZKc_uV_U5dnte--40" value="店员管理" style="rounded=0;whiteSpace=wrap;html=1;sketch=1;" vertex="1" parent="uXWyWLTl78OVhnb3MbMW-1">
          <mxGeometry x="570" y="470" width="140" height="30" as="geometry" />
        </mxCell>
        <mxCell id="OshH1vZKc_uV_U5dnte--41" value="菜单功能角色" style="rounded=0;whiteSpace=wrap;html=1;sketch=1;" vertex="1" parent="uXWyWLTl78OVhnb3MbMW-1">
          <mxGeometry x="750" y="470" width="140" height="30" as="geometry" />
        </mxCell>
        <mxCell id="OshH1vZKc_uV_U5dnte--42" value="数据角色" style="rounded=0;whiteSpace=wrap;html=1;sketch=1;" vertex="1" parent="uXWyWLTl78OVhnb3MbMW-1">
          <mxGeometry x="920" y="470" width="140" height="30" as="geometry" />
        </mxCell>
        <mxCell id="OshH1vZKc_uV_U5dnte--43" value="账号管理" style="rounded=0;whiteSpace=wrap;html=1;sketch=1;" vertex="1" parent="uXWyWLTl78OVhnb3MbMW-1">
          <mxGeometry x="390" y="510" width="140" height="30" as="geometry" />
        </mxCell>
        <mxCell id="OshH1vZKc_uV_U5dnte--44" value="系统日志" style="rounded=0;whiteSpace=wrap;html=1;sketch=1;" vertex="1" parent="uXWyWLTl78OVhnb3MbMW-1">
          <mxGeometry x="570" y="510" width="140" height="30" as="geometry" />
        </mxCell>
        <mxCell id="OshH1vZKc_uV_U5dnte--45" value="审批流" style="rounded=0;whiteSpace=wrap;html=1;sketch=1;" vertex="1" parent="uXWyWLTl78OVhnb3MbMW-1">
          <mxGeometry x="750" y="510" width="140" height="30" as="geometry" />
        </mxCell>
        <mxCell id="OshH1vZKc_uV_U5dnte--46" value="&lt;span&gt;积分互动&lt;/span&gt;" style="rounded=0;whiteSpace=wrap;html=1;sketch=1;" vertex="1" parent="uXWyWLTl78OVhnb3MbMW-1">
          <mxGeometry x="920" y="510" width="140" height="30" as="geometry" />
        </mxCell>
        <mxCell id="OshH1vZKc_uV_U5dnte--47" value="数据底层和应用" style="text;html=1;align=center;verticalAlign=middle;resizable=0;points=[];autosize=1;strokeColor=none;sketch=1;" vertex="1" parent="uXWyWLTl78OVhnb3MbMW-1">
          <mxGeometry x="250" y="600" width="100" height="20" as="geometry" />
        </mxCell>
        <mxCell id="OshH1vZKc_uV_U5dnte--48" value="" style="rounded=0;whiteSpace=wrap;html=1;dashed=1;sketch=1;" vertex="1" parent="uXWyWLTl78OVhnb3MbMW-1">
          <mxGeometry x="360" y="580" width="730" height="60" as="geometry" />
        </mxCell>
        <mxCell id="OshH1vZKc_uV_U5dnte--49" value="技术中台" style="rounded=0;whiteSpace=wrap;html=1;sketch=1;" vertex="1" parent="uXWyWLTl78OVhnb3MbMW-1">
          <mxGeometry x="390" y="595" width="140" height="30" as="geometry" />
        </mxCell>
        <mxCell id="OshH1vZKc_uV_U5dnte--50" value="第三方长益" style="rounded=0;whiteSpace=wrap;html=1;sketch=1;" vertex="1" parent="uXWyWLTl78OVhnb3MbMW-1">
          <mxGeometry x="570" y="595" width="140" height="30" as="geometry" />
        </mxCell>
        <mxCell id="OshH1vZKc_uV_U5dnte--51" value="数据仓库" style="rounded=0;whiteSpace=wrap;html=1;sketch=1;" vertex="1" parent="uXWyWLTl78OVhnb3MbMW-1">
          <mxGeometry x="750" y="595" width="140" height="30" as="geometry" />
        </mxCell>
        <mxCell id="OshH1vZKc_uV_U5dnte--52" value="阿里云服务器" style="rounded=0;whiteSpace=wrap;html=1;sketch=1;" vertex="1" parent="uXWyWLTl78OVhnb3MbMW-1">
          <mxGeometry x="920" y="595" width="140" height="30" as="geometry" />
        </mxCell>
        <mxCell id="OshH1vZKc_uV_U5dnte--53" value="" style="strokeWidth=2;html=1;shape=mxgraph.flowchart.annotation_2;align=left;labelPosition=right;pointerEvents=1;rounded=0;sketch=1;" vertex="1" parent="uXWyWLTl78OVhnb3MbMW-1">
          <mxGeometry x="190" y="30" width="50" height="610" as="geometry" />
        </mxCell>
        <mxCell id="OshH1vZKc_uV_U5dnte--54" value="业&lt;br style=&quot;font-size: 25px;&quot;&gt;务&lt;br style=&quot;font-size: 25px;&quot;&gt;架&lt;br style=&quot;font-size: 25px;&quot;&gt;构" style="rounded=1;whiteSpace=wrap;html=1;strokeWidth=2;fillWeight=4;hachureGap=8;hachureAngle=45;sketch=1;fontSize=25;" vertex="1" parent="uXWyWLTl78OVhnb3MbMW-1">
          <mxGeometry x="140" y="240" width="50" height="175" as="geometry" />
        </mxCell>
      </root>
    </mxGraphModel>
  </diagram>
</mxfile>
